<mxfile host="app.diagrams.net" agent="Mozilla/5.0 (Macintosh; Intel Mac OS X 10_15_7) AppleWebKit/537.36 (KHTML, like Gecko) Chrome/130.0.0.0 Safari/537.36" version="24.8.3">
  <diagram name="Page-1" id="N_57aVjMVtkScywhiVQ_">
    <mxGraphModel dx="2037" dy="797" grid="1" gridSize="10" guides="1" tooltips="1" connect="1" arrows="1" fold="1" page="1" pageScale="1" pageWidth="1169" pageHeight="827" math="0" shadow="0">
      <root>
        <mxCell id="0" />
        <mxCell id="1" parent="0" />
        <mxCell id="r-9_rXMzRY92wvyFLWJS-2" value="" style="rounded=1;whiteSpace=wrap;html=1;" vertex="1" parent="1">
          <mxGeometry x="40" y="310" width="120" height="210" as="geometry" />
        </mxCell>
        <mxCell id="r-9_rXMzRY92wvyFLWJS-1" value="IPS7100 Data" style="rounded=1;whiteSpace=wrap;html=1;" vertex="1" parent="1">
          <mxGeometry x="47.5" y="370" width="105" height="60" as="geometry" />
        </mxCell>
        <mxCell id="r-9_rXMzRY92wvyFLWJS-3" value="&lt;span style=&quot;color: rgb(0, 0, 0); font-family: Helvetica; font-size: 12px; font-style: normal; font-variant-ligatures: normal; font-variant-caps: normal; font-weight: 400; letter-spacing: normal; orphans: 2; text-align: center; text-indent: 0px; text-transform: none; widows: 2; word-spacing: 0px; -webkit-text-stroke-width: 0px; white-space: normal; background-color: rgb(251, 251, 251); text-decoration-thickness: initial; text-decoration-style: initial; text-decoration-color: initial; display: inline !important; float: none;&quot;&gt;BME280 Data&lt;/span&gt;" style="rounded=1;whiteSpace=wrap;html=1;" vertex="1" parent="1">
          <mxGeometry x="47.5" y="450" width="105" height="60" as="geometry" />
        </mxCell>
        <mxCell id="r-9_rXMzRY92wvyFLWJS-4" style="edgeStyle=orthogonalEdgeStyle;rounded=0;orthogonalLoop=1;jettySize=auto;html=1;exitX=0.5;exitY=1;exitDx=0;exitDy=0;" edge="1" parent="1" source="r-9_rXMzRY92wvyFLWJS-2" target="r-9_rXMzRY92wvyFLWJS-2">
          <mxGeometry relative="1" as="geometry" />
        </mxCell>
        <mxCell id="r-9_rXMzRY92wvyFLWJS-6" value="&lt;font style=&quot;font-size: 14px;&quot;&gt;LoRaWAN Nodes&lt;/font&gt;" style="text;html=1;align=left;verticalAlign=middle;whiteSpace=wrap;rounded=0;" vertex="1" parent="1">
          <mxGeometry x="45" y="320" width="80" height="30" as="geometry" />
        </mxCell>
        <mxCell id="r-9_rXMzRY92wvyFLWJS-12" value="Humidity Correction" style="rounded=1;whiteSpace=wrap;html=1;" vertex="1" parent="1">
          <mxGeometry x="240" y="415" width="120" height="50" as="geometry" />
        </mxCell>
        <mxCell id="r-9_rXMzRY92wvyFLWJS-13" value="Machine Learning Correction" style="rounded=1;whiteSpace=wrap;html=1;" vertex="1" parent="1">
          <mxGeometry x="440" y="415" width="120" height="50" as="geometry" />
        </mxCell>
        <mxCell id="r-9_rXMzRY92wvyFLWJS-14" style="edgeStyle=orthogonalEdgeStyle;rounded=0;orthogonalLoop=1;jettySize=auto;html=1;exitX=0.5;exitY=1;exitDx=0;exitDy=0;" edge="1" parent="1" source="r-9_rXMzRY92wvyFLWJS-12" target="r-9_rXMzRY92wvyFLWJS-12">
          <mxGeometry relative="1" as="geometry" />
        </mxCell>
        <mxCell id="r-9_rXMzRY92wvyFLWJS-15" value="Machine Learning Correction" style="rounded=1;whiteSpace=wrap;html=1;" vertex="1" parent="1">
          <mxGeometry x="640" y="415" width="120" height="50" as="geometry" />
        </mxCell>
        <mxCell id="r-9_rXMzRY92wvyFLWJS-17" value="" style="rounded=1;whiteSpace=wrap;html=1;" vertex="1" parent="1">
          <mxGeometry x="240" y="130" width="120" height="210" as="geometry" />
        </mxCell>
        <mxCell id="r-9_rXMzRY92wvyFLWJS-18" value="IPS7100 Data" style="rounded=1;whiteSpace=wrap;html=1;" vertex="1" parent="1">
          <mxGeometry x="247.5" y="190" width="105" height="60" as="geometry" />
        </mxCell>
        <mxCell id="r-9_rXMzRY92wvyFLWJS-19" value="&lt;span style=&quot;color: rgb(0, 0, 0); font-family: Helvetica; font-size: 12px; font-style: normal; font-variant-ligatures: normal; font-variant-caps: normal; font-weight: 400; letter-spacing: normal; orphans: 2; text-align: center; text-indent: 0px; text-transform: none; widows: 2; word-spacing: 0px; -webkit-text-stroke-width: 0px; white-space: normal; background-color: rgb(251, 251, 251); text-decoration-thickness: initial; text-decoration-style: initial; text-decoration-color: initial; display: inline !important; float: none;&quot;&gt;BME280 Data&lt;/span&gt;" style="rounded=1;whiteSpace=wrap;html=1;" vertex="1" parent="1">
          <mxGeometry x="247.5" y="270" width="105" height="60" as="geometry" />
        </mxCell>
        <mxCell id="r-9_rXMzRY92wvyFLWJS-20" style="edgeStyle=orthogonalEdgeStyle;rounded=0;orthogonalLoop=1;jettySize=auto;html=1;exitX=0.5;exitY=1;exitDx=0;exitDy=0;" edge="1" parent="1" source="r-9_rXMzRY92wvyFLWJS-17" target="r-9_rXMzRY92wvyFLWJS-17">
          <mxGeometry relative="1" as="geometry" />
        </mxCell>
        <mxCell id="r-9_rXMzRY92wvyFLWJS-21" value="&lt;font style=&quot;font-size: 14px;&quot;&gt;LoRaWAN Nodes&lt;/font&gt;" style="text;html=1;align=left;verticalAlign=middle;whiteSpace=wrap;rounded=0;" vertex="1" parent="1">
          <mxGeometry x="245" y="140" width="85" height="30" as="geometry" />
        </mxCell>
        <mxCell id="r-9_rXMzRY92wvyFLWJS-22" value="Humidity Correction" style="rounded=1;whiteSpace=wrap;html=1;" vertex="1" parent="1">
          <mxGeometry x="440" y="250" width="120" height="50" as="geometry" />
        </mxCell>
        <mxCell id="r-9_rXMzRY92wvyFLWJS-23" value="Machine Learning Model" style="rounded=1;whiteSpace=wrap;html=1;" vertex="1" parent="1">
          <mxGeometry x="640" y="250" width="120" height="50" as="geometry" />
        </mxCell>
        <mxCell id="r-9_rXMzRY92wvyFLWJS-25" value="" style="rounded=1;whiteSpace=wrap;html=1;" vertex="1" parent="1">
          <mxGeometry x="540" y="90" width="120" height="110" as="geometry" />
        </mxCell>
      </root>
    </mxGraphModel>
  </diagram>
</mxfile>
